# xmcd CD database file
#
# Track frame offsets:
#	150
#	19797
#	36962
#	59483
#	76293
#	87161
#	108309
#	130109
#	142519
#	157547
#	174065
#
# Disc length: 2629 seconds
#
# Revision: 4
# Processed by: cddbd v1.4PL0 Copyright (c) Steve Scherf et al.
# Submitted via: CDex 1.51
#
DISCID=720a430b
DTITLE=Enya - The Memory of Trees
DYEAR=1995
DGENRE=New Age
TTITLE0=The Memory of Trees
TTITLE1=Anythere is
TTITLE2=Pax Deorum
TTITLE3=Athair Ar Neamh
TTITLE4=From Where I Am
TTITLE5=China Roses
TTITLE6=Hope Has a Place
TTITLE7=Tea-House Moon
TTITLE8=Once You Had Gold
TTITLE9=La Sonadora
TTITLE10=On My Way Home
EXTD=YEAR: 1995
EXTT0=
EXTT1=
EXTT2=
EXTT3=
EXTT4=
EXTT5=
EXTT6=
EXTT7=
EXTT8=
EXTT9=
EXTT10=
PLAYORDER=
